<?xml version="1.0" encoding="utf-8"?>
<!-- Generator: Adobe Illustrator 19.0.0, SVG Export Plug-In . SVG Version: 6.00 Build 0)  -->
<svg version="1.1" xmlns="http://www.w3.org/2000/svg" xmlns:xlink="http://www.w3.org/1999/xlink" x="0px" y="0px"
	 viewBox="0 0 595.3 841.9" style="enable-background:new 0 0 595.3 841.9;" xml:space="preserve">
<style type="text/css">
	.st0{fill:none;stroke:#000000;stroke-width:5;stroke-miterlimit:10;}
	.st1{display:none;}
	.st2{display:inline;fill:none;stroke:#000000;stroke-miterlimit:10;}
</style>
<g id="Ebene_2">
	<g id="XMLID_12_">
		<path id="XMLID_14_" class="st0" d="M89.5,220c0-0.1,0.1-0.3,0.1-0.4C106.5,138,178.8,76.7,265.4,76.7
			c75.5,0,140,46.4,166.6,112.3c0.1,0.3,0.2,0.6,0.3,0.9 M85.9,256.2c0,99.1,80.4,179.5,179.5,179.5s179.5-80.4,179.5-179.5
			c0-12.4-1.3-24.8-3.7-36.4 M441.2,219.7 M441.2,220c0-0.3-0.3-0.3-0.3-0.3l-351.3-0.1c0,0,0.2-0.9,0.8-3.6"/>
		<path id="XMLID_11_" class="st0" d="M415.4,258.7c0,82.9-67.2,150.1-150.1,150.1s-150.1-67.2-150.1-150.1c0-0.9,0-1.9,0-2.8
			 M265.4,408.7l-0.3-300.1l0,0c-58,0-106.3,32.9-131.3,81.1"/>
	</g>
</g>
<g id="Ebene_3" class="st1">
	<path id="XMLID_4_" class="st2" d="M153.8,193.2c0,0,4-8.7,13.9-8.7c0,8,0,31.3,0,31.3"/>
	<path id="XMLID_3_" class="st2" d="M185.3,193.9c0,0-3.8-13.6-18.2-13.6s-18.7,13.1-18.7,18.7c5.9,0,36.9,0,36.9,0
		s0.4,20.9-18.4,20.9S148.4,204,148.4,204"/>
	<path id="XMLID_1_" class="st2" d="M167.2,215.9"/>
	<path id="XMLID_5_" class="st2" d="M153.8,204.4c0,0,2.8,11.8,13.9,11.8s12.4-11.8,12.4-11.8"/>
</g>
</svg>
